<svg width="28" height="29" viewBox="0 0 28 29" fill="none" xmlns="http://www.w3.org/2000/svg">
<circle cx="14" cy="14.5" r="13" fill="url(#paint0_linear_32_7)" stroke="black" stroke-width="2"/>
<g filter="url(#filter0_i_32_7)">
<circle cx="14" cy="14.5" r="12.6" fill="url(#paint1_linear_32_7)"/>
</g>
<circle cx="14" cy="14.5" r="11.6" stroke="url(#paint2_linear_32_7)" stroke-width="2"/>
<g filter="url(#filter1_d_32_7)">
<mask id="path-4-outside-1_32_7" maskUnits="userSpaceOnUse" x="6" y="6" width="16" height="16" fill="black">
<rect fill="white" x="6" y="6" width="16" height="16"/>
<path d="M12.1154 17.876L11.7115 18.596H13.3269L13.3269 21H14.0407H14.6512L14.6731 18.596H16.2885L15.8846 17.876H21L17.7442 15.2002L20.7558 10.4527L15.9535 13.3875L14.5698 8.55372L14 7L13.4302 8.55372L12.0608 13.3875L7.25849 10.4527L10.2701 15.2002L7 17.876H12.1154Z"/>
</mask>
<path d="M12.1154 17.876L11.7115 18.596H13.3269L13.3269 21H14.0407H14.6512L14.6731 18.596H16.2885L15.8846 17.876H21L17.7442 15.2002L20.7558 10.4527L15.9535 13.3875L14.5698 8.55372L14 7L13.4302 8.55372L12.0608 13.3875L7.25849 10.4527L10.2701 15.2002L7 17.876H12.1154Z" fill="#DEB100"/>
<path d="M11.7115 18.596L10.8394 18.1067C10.6657 18.4164 10.6692 18.7949 10.8486 19.1013C11.0281 19.4077 11.3565 19.596 11.7115 19.596V18.596ZM12.1154 17.876L12.9875 18.3653L12.1154 16.876V17.876ZM13.3269 18.596H14.3269L14.3269 17.596H13.3269V18.596ZM13.3269 21H12.3269L12.3269 22H13.3269V21ZM14.6512 21V22H15.6421L15.6511 21.0091L14.6512 21ZM14.6731 18.596V17.596H13.6822L13.6731 18.5868L14.6731 18.596ZM16.2885 18.596V19.596C16.6435 19.596 16.9719 19.4077 17.1514 19.1013C17.3308 18.7949 17.3343 18.4164 17.1606 18.1067L16.2885 18.596ZM15.8846 17.876V16.876L15.0125 18.3653L15.8846 17.876ZM21 17.876V18.876C21.4223 18.876 21.799 18.6108 21.9414 18.2133C22.0838 17.8157 21.9612 17.3716 21.6349 17.1035L21 17.876ZM17.7442 15.2002L16.8997 14.6645L16.426 15.4113L17.1092 15.9727L17.7442 15.2002ZM20.7558 10.4527L21.6002 10.9884C21.8493 10.5957 21.7949 10.0831 21.4688 9.75155C21.1427 9.41998 20.6311 9.35694 20.2343 9.59943L20.7558 10.4527ZM15.9535 13.3875L14.9921 13.6627L16.4749 14.2408L15.9535 13.3875ZM14.5698 8.55372L15.5311 8.27852L15.5211 8.24357L15.5086 8.20943L14.5698 8.55372ZM14 7L14.9389 6.65571C14.7944 6.26185 14.4195 6 14 6C13.5805 6 13.2056 6.26184 13.0611 6.65571L14 7ZM13.4302 8.55372L12.4914 8.20943L12.4784 8.24485L12.4681 8.28115L13.4302 8.55372ZM12.0608 13.3875L11.5394 14.2408L13.0229 13.6601L12.0608 13.3875ZM7.25849 10.4527L7.77995 9.59943C7.38314 9.35694 6.87155 9.41998 6.54549 9.75155C6.21942 10.0831 6.16496 10.5957 6.41406 10.9884L7.25849 10.4527ZM10.2701 15.2002L10.9034 15.9741L11.5893 15.4129L11.1145 14.6645L10.2701 15.2002ZM7 17.876L6.36672 17.1021C6.03961 17.3698 5.91611 17.8142 6.05821 18.2122C6.20032 18.6103 6.57734 18.876 7 18.876V17.876ZM12.5837 19.0852L12.9875 18.3653L11.2432 17.3868L10.8394 18.1067L12.5837 19.0852ZM13.3269 17.596H11.7115V19.596H13.3269V17.596ZM14.3269 21L14.3269 18.596H12.3269L12.3269 21H14.3269ZM14.0407 20H13.3269V22H14.0407V20ZM14.0407 22H14.6512V20H14.0407V22ZM15.6511 21.0091L15.673 18.6051L13.6731 18.5868L13.6512 20.9909L15.6511 21.0091ZM14.6731 19.596H16.2885V17.596H14.6731V19.596ZM17.1606 18.1067L16.7568 17.3868L15.0125 18.3653L15.4163 19.0852L17.1606 18.1067ZM15.8846 18.876H21V16.876H15.8846V18.876ZM21.6349 17.1035L18.3791 14.4276L17.1092 15.9727L20.3651 18.6486L21.6349 17.1035ZM18.5886 15.7359L21.6002 10.9884L19.9114 9.91704L16.8997 14.6645L18.5886 15.7359ZM20.2343 9.59943L15.432 12.5342L16.4749 14.2408L21.2773 11.306L20.2343 9.59943ZM16.9149 13.1123L15.5311 8.27852L13.6084 8.82893L14.9921 13.6627L16.9149 13.1123ZM15.5086 8.20943L14.9389 6.65571L13.0611 7.34429L13.6309 8.89801L15.5086 8.20943ZM14.3691 8.89802L14.9389 7.34429L13.0611 6.65571L12.4914 8.20943L14.3691 8.89802ZM13.0229 13.6601L14.3924 8.8263L12.4681 8.28115L11.0987 13.1149L13.0229 13.6601ZM6.73703 11.306L11.5394 14.2408L12.5823 12.5342L7.77995 9.59943L6.73703 11.306ZM11.1145 14.6645L8.10292 9.91704L6.41406 10.9884L9.42569 15.7359L11.1145 14.6645ZM7.63328 18.65L10.9034 15.9741L9.63684 14.4263L6.36672 17.1021L7.63328 18.65ZM12.1154 16.876H7V18.876H12.1154V16.876Z" fill="#CAA200" mask="url(#path-4-outside-1_32_7)"/>
</g>
<defs>
<filter id="filter0_i_32_7" x="1.40002" y="1.89999" width="27.2" height="26.2" filterUnits="userSpaceOnUse" color-interpolation-filters="sRGB">
<feFlood flood-opacity="0" result="BackgroundImageFix"/>
<feBlend mode="normal" in="SourceGraphic" in2="BackgroundImageFix" result="shape"/>
<feColorMatrix in="SourceAlpha" type="matrix" values="0 0 0 0 0 0 0 0 0 0 0 0 0 0 0 0 0 0 127 0" result="hardAlpha"/>
<feOffset dx="2" dy="1"/>
<feGaussianBlur stdDeviation="2"/>
<feComposite in2="hardAlpha" operator="arithmetic" k2="-1" k3="1"/>
<feColorMatrix type="matrix" values="0 0 0 0 0 0 0 0 0 0 0 0 0 0 0 0 0 0 0.25 0"/>
<feBlend mode="normal" in2="shape" result="effect1_innerShadow_32_7"/>
</filter>
<filter id="filter1_d_32_7" x="5.99995" y="6" width="18.0001" height="18" filterUnits="userSpaceOnUse" color-interpolation-filters="sRGB">
<feFlood flood-opacity="0" result="BackgroundImageFix"/>
<feColorMatrix in="SourceAlpha" type="matrix" values="0 0 0 0 0 0 0 0 0 0 0 0 0 0 0 0 0 0 127 0" result="hardAlpha"/>
<feOffset dx="1" dy="1"/>
<feGaussianBlur stdDeviation="0.5"/>
<feComposite in2="hardAlpha" operator="out"/>
<feColorMatrix type="matrix" values="0 0 0 0 0 0 0 0 0 0 0 0 0 0 0 0 0 0 0.25 0"/>
<feBlend mode="normal" in2="BackgroundImageFix" result="effect1_dropShadow_32_7"/>
<feBlend mode="normal" in="SourceGraphic" in2="effect1_dropShadow_32_7" result="shape"/>
</filter>
<linearGradient id="paint0_linear_32_7" x1="18.76" y1="14.5" x2="5.32" y2="14.5" gradientUnits="userSpaceOnUse">
<stop stop-color="#F9E455"/>
<stop offset="1" stop-color="#E9C10B"/>
</linearGradient>
<linearGradient id="paint1_linear_32_7" x1="18.284" y1="14.5" x2="6.18802" y2="14.5" gradientUnits="userSpaceOnUse">
<stop stop-color="#F9E455"/>
<stop offset="1" stop-color="#E9C10B"/>
</linearGradient>
<linearGradient id="paint2_linear_32_7" x1="-14.14" y1="0.0799935" x2="25.76" y2="24.16" gradientUnits="userSpaceOnUse">
<stop offset="0.255208" stop-color="#785A13"/>
<stop offset="0.864583" stop-color="#EBC935"/>
</linearGradient>
</defs>
</svg>
