<svg width="50" height="50" viewBox="0 0 60 60" fill="none" xmlns="http://www.w3.org/2000/svg">
<path d="M0.0331187 43.2458C0.0331187 43.2458 1.26955 38.1889 2.15271 36.0963C3.03588 34.0038 5.86201 30.865 5.86201 30.865H30.0276V24.7617V18.6585V6.452C23.4039 6.452 17.5198 7.84703 17.5198 7.84703C16.9598 5.65071 16.303 4.20032 14.517 1.22065C14.517 1.22065 13.9871 0 12.7507 0C11.5143 0 10.6311 1.04627 10.6311 1.04627C10.6311 1.04627 5.86201 8.19578 2.68261 21.5357C-0.49678 34.8757 0.0331187 43.2458 0.0331187 43.2458Z" fill="#19976A"/>
<path d="M59.9669 43.2458C59.9669 43.2458 58.7304 38.1889 57.8473 36.0963C56.9641 34.0038 54.138 30.865 54.138 30.865H30.0276V24.7617V18.6585V6.452C36.6513 6.452 42.4802 7.84703 42.4802 7.84703C43.0402 5.65071 43.697 4.20032 45.483 1.22065C45.483 1.22065 46.0129 0 47.2493 0C48.4857 0 49.3689 1.04627 49.3689 1.04627C49.3689 1.04627 54.138 8.19578 57.3174 21.5357C60.4968 34.8757 59.9669 43.2458 59.9669 43.2458Z" fill="#19976A"/>
<path d="M59.8786 43.2479C59.8786 54.1305 36.032 59.6395 30.2042 59.9882C24.3765 60.337 -0.0931526 52.8387 0.176621 43.2479C0.529834 30.6927 10.4213 25.1104 30.2042 24.415C50.517 25.4592 59.3487 30.6927 59.8786 43.2479Z" fill="#EAEAD8"/>
<path d="M42.8001 53.3599C46.686 53.3599 48.154 47.0822 48.154 47.0822H37.4462C37.4462 47.0822 38.9141 53.3599 42.8001 53.3599Z" fill="#F1F1E5" fill-opacity="0.8"/>
<path d="M33.2619 49.5234C37.1478 49.5234 38.6158 43.2458 38.6158 43.2458H27.908C27.908 43.2458 29.376 49.5234 33.2619 49.5234Z" fill="#F1F1E5" fill-opacity="0.8"/>
<path d="M20.5443 54.0574C24.4303 54.0574 25.8982 47.7798 25.8982 47.7798H15.1904C15.1904 47.7798 16.6584 54.0574 20.5443 54.0574Z" fill="#F1F1E5" fill-opacity="0.8"/>
<path d="M10.6529 49.5234C14.5388 49.5234 16.0068 43.2458 16.0068 43.2458H5.29898C5.29898 43.2458 6.76695 49.5234 10.6529 49.5234Z" fill="#F1F1E5" fill-opacity="0.8"/>
<ellipse cx="15.1905" cy="23.8899" rx="11.3045" ry="10.9858" fill="#4D4D4D"/>
<ellipse cx="15.1904" cy="23.7155" rx="8.83165" ry="8.71892" fill="white"/>
<ellipse cx="15.0138" cy="23.8899" rx="6.18215" ry="6.10324" fill="#3B3B3B"/>
<path d="M18.487 25.9361C17.6785 26.7076 16.4233 27.2031 15.0138 27.2031C12.7627 27.2031 10.905 25.9392 10.6324 24.3057C10.6097 24.4549 10.598 24.6072 10.598 24.7618C10.598 26.6879 12.4169 28.2494 14.6605 28.2494C16.4243 28.2494 17.9255 27.2845 18.487 25.9361Z" fill="#19976A"/>
<line x1="19.9025" y1="25.3667" x2="20.3698" y2="25.3667" stroke="white" stroke-width="4" stroke-linecap="round"/>
<ellipse cx="44.8647" cy="23.8899" rx="11.3045" ry="10.9858" fill="#4D4D4D"/>
<ellipse cx="44.8648" cy="23.7155" rx="8.83165" ry="8.71892" fill="white"/>
<ellipse cx="44.6881" cy="23.8899" rx="6.18215" ry="6.10324" fill="#3B3B3B"/>
<path d="M48.5 25.5C48.3825 25.6121 47.7815 26.2543 47.7815 26.2543C46.9848 26.8411 45.8928 27.2031 44.6881 27.2031C42.437 27.2031 40.5793 25.9392 40.3067 24.3057C40.284 24.4549 40.2723 24.6072 40.2723 24.7618C40.2723 26.6879 42.0912 28.2494 44.3349 28.2494C45.8659 28.2494 47.1991 27.5223 47.8916 26.4485C47.8916 26.4485 48.4259 25.6779 48.5 25.5Z" fill="#19976A"/>
<line x1="49.5768" y1="25.3667" x2="50.0442" y2="25.3667" stroke="white" stroke-width="4" stroke-linecap="round"/>
<path d="M25.2585 19.0073C25.2585 19.0073 27.3781 23.1924 29.851 23.1924C32.3238 23.1924 34.7967 19.0073 34.7967 19.0073L35.6798 28.7725C35.6798 28.7725 33.207 25.9825 29.851 26.1568C26.4949 26.3312 24.552 28.4238 24.552 28.4238L25.2585 19.0073Z" fill="#4D4D4D"/>
<path d="M36.0331 30.3418C36.0331 32.6532 33.521 35.3988 30.2042 35.3988C26.8875 35.3988 24.0221 32.6532 24.0221 30.3418C24.0221 28.0305 26.7108 26.1567 30.0276 26.1567C33.3443 26.1567 36.0331 28.0305 36.0331 30.3418Z" fill="#FFB400"/>
</svg>
