<svg width="40" height="40" viewBox="0 0 50 51" fill="none" xmlns="http://www.w3.org/2000/svg">
<circle cx="25" cy="25.9222" r="25" fill="#0B0D0F"/>
<path fill-rule="evenodd" clip-rule="evenodd" d="M39 12H12V27.1875L24.4233 27.1875V39H26.7424V27.1875L39 27.1875V12Z" fill="#B9A663"/>
<path fill-rule="evenodd" clip-rule="evenodd" d="M15.1924 14.7738C15.1926 14.7737 15.1927 14.7736 14.9816 14.3204C14.7704 13.8672 14.7706 13.8671 14.7708 13.867L14.7711 13.8669L14.772 13.8665L14.774 13.8655L14.7797 13.863L14.7973 13.8551C14.8117 13.8488 14.8315 13.8403 14.8563 13.8302C14.9059 13.81 14.9756 13.7831 15.0621 13.7536C15.2345 13.695 15.4777 13.6248 15.7643 13.5778C16.3295 13.4852 17.1148 13.4752 17.8529 13.8827C18.1017 14.0201 18.2026 14.0145 18.2312 14.011C18.2814 14.0049 18.3169 13.986 18.497 13.8847C18.6622 13.7917 18.9004 13.666 19.24 13.6355C19.5727 13.6058 19.9536 13.6706 20.4234 13.855C20.7919 13.9995 21.0333 14.0204 21.1953 14.0062C21.3559 13.9921 21.4794 13.9406 21.6255 13.8665C21.6407 13.8588 21.658 13.8497 21.6773 13.8395C21.8061 13.7715 22.0215 13.6578 22.2537 13.6285C22.5783 13.5875 22.8779 13.6985 23.1726 13.9221C23.2912 14.012 23.3495 14.0064 23.3982 13.9976C23.4889 13.9812 23.5785 13.9366 23.7573 13.8475L23.8342 13.8093C24.0338 13.7103 24.3174 13.5771 24.6609 13.5573C25.0227 13.5364 25.3942 13.6421 25.7824 13.9078C26.0106 14.064 26.1538 14.0749 26.2485 14.064C26.3698 14.05 26.492 13.9928 26.689 13.8833L26.7328 13.8588C26.8972 13.7663 27.1507 13.6236 27.4308 13.5849C27.7972 13.5342 28.1442 13.6568 28.4667 13.9511C28.5971 14.0702 28.6906 14.0834 28.7803 14.0758C28.9084 14.065 29.0566 14.0067 29.2862 13.9015L29.3379 13.8776C29.5296 13.789 29.796 13.6658 30.0685 13.6256C30.416 13.5743 30.7803 13.6519 31.1029 13.9573C31.1779 14.0282 31.2303 14.0383 31.3187 14.0257C31.4519 14.0066 31.6043 13.9396 31.8533 13.8283L31.8607 13.825C32.0729 13.7302 32.3729 13.5961 32.6905 13.5687C33.0555 13.5372 33.4234 13.6451 33.7439 13.9684C33.9777 14.2043 34.4022 14.2513 34.9261 14.1499C35.1675 14.1032 35.3896 14.0321 35.5531 13.9716C35.6341 13.9416 35.699 13.9149 35.7425 13.8962C35.7642 13.8868 35.7805 13.8795 35.7907 13.8749L35.8014 13.87L35.8026 13.8694C35.8025 13.8695 35.8023 13.8695 36.0184 14.3204C36.2345 14.7713 36.2343 14.7714 36.2342 14.7715L36.2339 14.7716L36.2331 14.772L36.2311 14.7729L36.2251 14.7757L36.2056 14.7847C36.1893 14.7922 36.1665 14.8024 36.1378 14.8147C36.0805 14.8394 35.9995 14.8727 35.9001 14.9095C35.7029 14.9825 35.4264 15.0716 35.1162 15.1317C34.537 15.2438 33.6467 15.2908 33.0337 14.6724C32.9308 14.5686 32.8585 14.5579 32.7764 14.565C32.6507 14.5758 32.5 14.6346 32.2613 14.7413L32.215 14.7621C32.0152 14.852 31.7405 14.9755 31.4602 15.0156C31.1126 15.0653 30.7417 14.9923 30.4155 14.6835C30.337 14.6093 30.289 14.6039 30.2145 14.6148C30.0904 14.6332 29.9492 14.6976 29.7028 14.8106C29.4924 14.907 29.1921 15.0445 28.8647 15.0723C28.499 15.1032 28.1301 14.9978 27.7925 14.6897C27.653 14.5624 27.5924 14.5717 27.5705 14.575L27.5679 14.5754C27.4885 14.5864 27.3981 14.6333 27.1746 14.7575C26.9871 14.8616 26.7055 15.018 26.3629 15.0574C25.9939 15.0999 25.6134 15.004 25.2176 14.733C24.9818 14.5716 24.8256 14.5495 24.7186 14.5556C24.5933 14.5629 24.467 14.6117 24.2783 14.7052C24.2584 14.7151 24.2369 14.726 24.2138 14.7378L24.2137 14.7378C24.0541 14.8189 23.8206 14.9374 23.5761 14.9816C23.242 15.042 22.9016 14.9717 22.5682 14.7188C22.4859 14.6564 22.4351 14.6337 22.4102 14.6255C22.3909 14.6191 22.3838 14.62 22.3793 14.6205L22.3789 14.6206C22.3385 14.6257 22.3039 14.6433 22.1521 14.7206L22.0779 14.7583C21.8913 14.853 21.6327 14.9716 21.2828 15.0024C20.9342 15.033 20.5365 14.9735 20.0582 14.7859C19.6812 14.638 19.4604 14.6198 19.3292 14.6316C19.2051 14.6427 19.1174 14.683 18.9873 14.7562C18.9756 14.7628 18.9628 14.7702 18.9488 14.7783L18.9488 14.7783C18.825 14.8497 18.6135 14.9718 18.352 15.0036C18.0393 15.0417 17.7224 14.953 17.3695 14.7581C16.9042 14.5012 16.3747 14.4911 15.926 14.5647C15.7056 14.6008 15.517 14.6552 15.3844 14.7003C15.3184 14.7228 15.2673 14.7426 15.2341 14.7561C15.2176 14.7629 15.2056 14.768 15.1985 14.7711L15.1917 14.7741C15.1913 14.7743 15.1911 14.7744 15.1913 14.7743L15.1917 14.7741L15.1922 14.7739L15.1924 14.7738ZM15.1924 23.2111C15.1926 23.211 15.1927 23.2109 14.9816 22.7577C14.7704 22.3045 14.7706 22.3044 14.7708 22.3043L14.7711 22.3042L14.772 22.3038L14.774 22.3028L14.7797 22.3002L14.7973 22.2924C14.8117 22.2861 14.8315 22.2776 14.8563 22.2675C14.9059 22.2473 14.9756 22.2204 15.0621 22.1909C15.2345 22.1323 15.4777 22.0621 15.7643 22.0151C16.3295 21.9225 17.1148 21.9125 17.8529 22.32C18.1017 22.4574 18.2026 22.4517 18.2312 22.4483C18.2814 22.4422 18.3169 22.4233 18.497 22.322C18.6622 22.229 18.9004 22.1033 19.24 22.0728C19.5727 22.0431 19.9536 22.1079 20.4234 22.2923C20.7919 22.4368 21.0333 22.4577 21.1953 22.4435C21.3559 22.4294 21.4794 22.3779 21.6255 22.3038C21.6406 22.2961 21.6579 22.287 21.6771 22.2768L21.6773 22.2768C21.8061 22.2087 22.0215 22.0951 22.2537 22.0658C22.5783 22.0248 22.8779 22.1358 23.1726 22.3594C23.2912 22.4493 23.3495 22.4437 23.3982 22.4349C23.4889 22.4185 23.5785 22.3739 23.7573 22.2848L23.8342 22.2465C24.0338 22.1476 24.3174 22.0144 24.6609 21.9946C25.0227 21.9737 25.3942 22.0794 25.7824 22.3451C26.0106 22.5013 26.1538 22.5122 26.2485 22.5013C26.3698 22.4873 26.492 22.4301 26.689 22.3206L26.7328 22.2961C26.8972 22.2035 27.1507 22.0609 27.4308 22.0222C27.7972 21.9715 28.1442 22.094 28.4667 22.3884C28.5971 22.5075 28.6906 22.5207 28.7803 22.5131C28.9084 22.5023 29.0566 22.444 29.2862 22.3388L29.3379 22.3149C29.5296 22.2263 29.796 22.1031 30.0685 22.0629C30.416 22.0116 30.7803 22.0892 31.1029 22.3946C31.1779 22.4655 31.2303 22.4756 31.3187 22.463C31.4519 22.4439 31.6043 22.3769 31.8533 22.2656L31.8607 22.2623C32.0729 22.1674 32.3729 22.0333 32.6905 22.0059C33.0555 21.9745 33.4234 22.0824 33.7439 22.4057C33.9777 22.6416 34.4022 22.6886 34.9261 22.5872C35.1675 22.5405 35.3896 22.4694 35.5531 22.4089C35.6341 22.3789 35.699 22.3522 35.7425 22.3335C35.7642 22.3241 35.7805 22.3168 35.7907 22.3122L35.8014 22.3073L35.8026 22.3067C35.8025 22.3068 35.8023 22.3068 36.0184 22.7577C36.2345 23.2086 36.2343 23.2087 36.2342 23.2088L36.2339 23.2089L36.2331 23.2093L36.2311 23.2102L36.2251 23.213L36.2056 23.222C36.1893 23.2295 36.1665 23.2397 36.1378 23.252C36.0805 23.2767 35.9995 23.31 35.9001 23.3468C35.7029 23.4198 35.4264 23.5089 35.1162 23.569C34.537 23.6811 33.6467 23.7281 33.0337 23.1097C32.9308 23.0059 32.8585 22.9952 32.7764 23.0023C32.6507 23.0131 32.5 23.0719 32.2613 23.1786L32.215 23.1994C32.0152 23.2893 31.7405 23.4128 31.4602 23.4529C31.1126 23.5026 30.7417 23.4296 30.4155 23.1208C30.337 23.0465 30.289 23.0411 30.2145 23.0521C30.0904 23.0704 29.9492 23.1349 29.7028 23.2479C29.4924 23.3443 29.1921 23.4818 28.8647 23.5095C28.499 23.5405 28.1301 23.4351 27.7925 23.127C27.653 22.9997 27.5924 23.009 27.5705 23.0123L27.5679 23.0127C27.4885 23.0237 27.3981 23.0706 27.1746 23.1948C26.9871 23.2989 26.7055 23.4553 26.3629 23.4947C25.9939 23.5372 25.6134 23.4413 25.2176 23.1703C24.9818 23.0089 24.8256 22.9867 24.7186 22.9929C24.5933 23.0002 24.467 23.049 24.2783 23.1425C24.2584 23.1524 24.2368 23.1633 24.2137 23.1751C24.0541 23.2562 23.8206 23.3747 23.5761 23.4189C23.242 23.4793 22.9016 23.409 22.5682 23.1561C22.4859 23.0937 22.4351 23.071 22.4102 23.0628C22.3909 23.0564 22.3838 23.0573 22.3793 23.0578L22.3789 23.0579C22.3385 23.063 22.3039 23.0806 22.1521 23.1579L22.1521 23.1579L22.0779 23.1956C21.8913 23.2903 21.6327 23.4089 21.2828 23.4397C20.9342 23.4703 20.5365 23.4108 20.0582 23.2232C19.6812 23.0753 19.4604 23.0571 19.3292 23.0689C19.2051 23.08 19.1174 23.1203 18.9873 23.1935C18.9757 23.2 18.9629 23.2074 18.9491 23.2154L18.9488 23.2156C18.825 23.287 18.6135 23.4091 18.352 23.4409C18.0393 23.479 17.7224 23.3903 17.3695 23.1954C16.9042 22.9385 16.3747 22.9284 15.926 23.002C15.7056 23.0381 15.517 23.0925 15.3844 23.1376C15.3184 23.1601 15.2673 23.1799 15.2341 23.1934C15.2176 23.2002 15.2056 23.2053 15.1985 23.2084L15.1924 23.2111ZM14.9816 18.3704C15.1927 18.8236 15.1926 18.8237 15.1924 18.8237L15.1922 18.8238L15.1917 18.824L15.1985 18.821C15.2056 18.818 15.2176 18.8128 15.2341 18.806C15.2673 18.7925 15.3184 18.7727 15.3844 18.7502C15.517 18.7051 15.7056 18.6507 15.926 18.6146C16.3747 18.5411 16.9042 18.5511 17.3695 18.8081C17.7224 19.0029 18.0393 19.0916 18.352 19.0536C18.6135 19.0218 18.825 18.8997 18.9488 18.8282C18.9628 18.8201 18.9756 18.8127 18.9873 18.8062C19.1174 18.733 19.2051 18.6926 19.3292 18.6815C19.4604 18.6698 19.6812 18.6879 20.0582 18.8358C20.5365 19.0235 20.9342 19.0829 21.2828 19.0523C21.6327 19.0216 21.8913 18.9029 22.0779 18.8082L22.1521 18.7705C22.3039 18.6932 22.3385 18.6756 22.3789 18.6705L22.3793 18.6705C22.3838 18.6699 22.3909 18.669 22.4102 18.6754C22.4351 18.6836 22.4859 18.7063 22.5682 18.7687C22.9016 19.0216 23.242 19.092 23.5761 19.0316C23.8206 18.9874 24.0541 18.8688 24.2137 18.7877C24.2368 18.776 24.2584 18.765 24.2783 18.7552C24.467 18.6616 24.5933 18.6128 24.7186 18.6056C24.8256 18.5994 24.9818 18.6216 25.2176 18.7829C25.6134 19.0539 25.9939 19.1498 26.3629 19.1073C26.7055 19.0679 26.9871 18.9116 27.1746 18.8074C27.3981 18.6833 27.4885 18.6364 27.5679 18.6254L27.5705 18.625C27.5924 18.6216 27.653 18.6123 27.7925 18.7397C28.1301 19.0477 28.499 19.1532 28.8647 19.1222C29.1921 19.0945 29.4924 18.9569 29.7028 18.8605C29.9492 18.7476 30.0904 18.6831 30.2145 18.6648C30.289 18.6538 30.337 18.6592 30.4155 18.7335C30.7417 19.0422 31.1126 19.1152 31.4602 19.0655C31.7405 19.0255 32.0152 18.9019 32.215 18.8121L32.2613 18.7912C32.5 18.6846 32.6507 18.6257 32.7764 18.6149C32.8585 18.6078 32.9308 18.6186 33.0337 18.7224C33.6467 19.3408 34.537 19.2937 35.1162 19.1816C35.4264 19.1215 35.7029 19.0324 35.9001 18.9594C35.9995 18.9227 36.0805 18.8893 36.1378 18.8647C36.1665 18.8523 36.1893 18.8421 36.2056 18.8347L36.2251 18.8257L36.2311 18.8229L36.2331 18.8219L36.2339 18.8215L36.2342 18.8214C36.2343 18.8213 36.2345 18.8213 36.0184 18.3704C35.8023 17.9195 35.8025 17.9194 35.8026 17.9193L35.8014 17.9199L35.7907 17.9248C35.7805 17.9295 35.7642 17.9368 35.7425 17.9461C35.699 17.9649 35.6341 17.9916 35.5531 18.0216C35.3896 18.0821 35.1675 18.1531 34.9261 18.1998C34.4022 18.3013 33.9777 18.2542 33.7439 18.0184C33.4234 17.695 33.0555 17.5871 32.6905 17.6186C32.3729 17.646 32.0729 17.7801 31.8607 17.875L31.8533 17.8783C31.6043 17.9895 31.4519 18.0566 31.3187 18.0756C31.2303 18.0882 31.1779 18.0782 31.1029 18.0072C30.7803 17.7019 30.416 17.6242 30.0685 17.6755C29.796 17.7157 29.5296 17.8389 29.3379 17.9276L29.2862 17.9514C29.0566 18.0567 28.9084 18.1149 28.7803 18.1258C28.6906 18.1333 28.5971 18.1201 28.4667 18.0011C28.1442 17.7067 27.7972 17.5841 27.4308 17.6348C27.1507 17.6736 26.8972 17.8162 26.7328 17.9087L26.689 17.9333C26.492 18.0427 26.3698 18.0999 26.2485 18.1139C26.1538 18.1248 26.0106 18.1139 25.7824 17.9578C25.3942 17.692 25.0227 17.5863 24.6609 17.6072C24.3174 17.6271 24.0338 17.7602 23.8342 17.8592L23.7573 17.8974C23.5785 17.9865 23.4889 18.0311 23.3982 18.0475C23.3495 18.0563 23.2912 18.062 23.1726 17.972C22.8779 17.7485 22.5783 17.6374 22.2537 17.6784C22.0215 17.7077 21.8061 17.8214 21.6773 17.8894L21.6772 17.8894C21.658 17.8996 21.6406 17.9087 21.6255 17.9164C21.4794 17.9906 21.3559 18.042 21.1953 18.0561C21.0333 18.0704 20.7919 18.0495 20.4234 17.9049C19.9536 17.7206 19.5727 17.6557 19.24 17.6855C18.9004 17.7159 18.6622 17.8417 18.497 17.9346C18.3169 18.0359 18.2814 18.0548 18.2312 18.0609C18.2026 18.0644 18.1017 18.07 17.8529 17.9327C17.1148 17.5251 16.3295 17.5352 15.7643 17.6278C15.4777 17.6747 15.2345 17.7449 15.0621 17.8036C14.9756 17.833 14.9059 17.8599 14.8563 17.8802C14.8315 17.8903 14.8117 17.8987 14.7973 17.9051L14.7797 17.9129L14.774 17.9155L14.772 17.9164L14.7711 17.9168L14.7708 17.917C14.7706 17.9171 14.7704 17.9171 14.9816 18.3704ZM15.1913 18.8243L15.1917 18.8241C15.1913 18.8243 15.1911 18.8244 15.1913 18.8243Z" fill="white"/>
</svg>
