<svg width="40" height="40" viewBox="0 0 51 51" fill="none" xmlns="http://www.w3.org/2000/svg">
<circle cx="25.2302" cy="25.1474" r="25" fill="black"/>
<path d="M13.4316 20.7168V34.1808C13.4316 35.8377 14.7748 37.1808 16.4316 37.1808H33.3381C34.995 37.1808 36.3381 35.8377 36.3381 34.1808V20.7168" stroke="#19976A" stroke-width="2"/>
<path d="M28.9821 37.1045V31.3779C28.9821 29.0059 27.0592 27.0829 24.6872 27.0829V27.0829C22.3151 27.0829 20.3922 29.0056 20.3922 31.3776C20.3922 33.2406 20.3922 35.3845 20.3922 37.1045" stroke="#19976A" stroke-width="2"/>
<path d="M36.5674 17.5002L36.6553 17.8206C36.7313 18.0975 36.7698 18.3834 36.7698 18.6706V19.1423C36.7698 20.432 35.842 21.5347 34.5713 21.7552C34.2293 21.8146 33.879 21.8062 33.5402 21.7306L32.3899 21.4739C31.5574 21.2882 30.6949 21.282 29.8598 21.4559L28.8541 21.6654C28.2974 21.7813 27.7224 21.7773 27.1674 21.6534L26.2779 21.4549C25.5114 21.2839 24.7189 21.265 23.9451 21.3993L22.1993 21.7023C21.6618 21.7955 21.111 21.7779 20.5806 21.6505L20.1008 21.5351C19.1421 21.3048 18.1414 21.3142 17.1872 21.5626L16.6996 21.6896C16.3077 21.7916 15.8991 21.812 15.499 21.7495C14.0605 21.5248 13 20.2858 13 18.8298V18.148C13 17.8438 13.0387 17.5408 13.1151 17.2463C13.5259 15.6636 14.9544 14.5585 16.5895 14.5585H25.0927H32.7099C34.5115 14.5585 36.0907 15.7628 36.5674 17.5002Z" stroke="#19976A" stroke-width="2"/>
<line y1="-1.5" x2="7.37043" y2="-1.5" transform="matrix(0.0563982 0.998408 -0.998129 0.0611409 29.8726 14.2078)" stroke="#19976A" stroke-width="3"/>
<line x1="25.5538" y1="14.2078" x2="25.5538" y2="21.5658" stroke="#19976A" stroke-width="3"/>
<line x1="19.7346" y1="14.2078" x2="19.7346" y2="21.5658" stroke="#19976A" stroke-width="3"/>
</svg>
