<svg width="24" height="24" viewBox="0 0 24 25" fill="none" xmlns="http://www.w3.org/2000/svg">
<circle cx="12" cy="12.9766" r="11" fill="url(#paint0_linear_8_4144)" stroke="black" stroke-width="2"/>
<g filter="url(#filter0_i_8_4144)">
<circle cx="12" cy="12.9766" r="10.8" fill="url(#paint1_linear_8_4144)"/>
</g>
<circle cx="12" cy="12.9766" r="9.8" stroke="url(#paint2_linear_8_4144)" stroke-width="2"/>
<g filter="url(#filter1_d_8_4144)">
<mask id="path-4-outside-1_8_4144" maskUnits="userSpaceOnUse" x="5" y="5.54797" width="14" height="14" fill="black">
<rect fill="white" x="5" y="5.54797" width="14" height="14"/>
<path d="M10.3846 15.8703L10.0385 16.4874H11.4231L11.4231 18.548H12.0349H12.5581L12.5769 16.4874H13.9615L13.6154 15.8703H18L15.2093 13.5767L17.7907 9.50744L13.6744 12.023L12.4884 7.87974L12 6.54797L11.5116 7.87974L10.3378 12.023L6.22156 9.50744L8.80296 13.5767L6 15.8703H10.3846Z"/>
</mask>
<path d="M10.3846 15.8703L10.0385 16.4874H11.4231L11.4231 18.548H12.0349H12.5581L12.5769 16.4874H13.9615L13.6154 15.8703H18L15.2093 13.5767L17.7907 9.50744L13.6744 12.023L12.4884 7.87974L12 6.54797L11.5116 7.87974L10.3378 12.023L6.22156 9.50744L8.80296 13.5767L6 15.8703H10.3846Z" fill="#DEB100"/>
<path d="M10.0385 16.4874L9.16631 15.9981C8.9926 16.3078 8.99612 16.6863 9.17555 16.9927C9.35498 17.2991 9.68341 17.4874 10.0385 17.4874V16.4874ZM10.3846 15.8703L11.2568 16.3595L10.3846 14.8703V15.8703ZM11.4231 16.4874L12.4231 16.4874L12.4231 15.4874H11.4231V16.4874ZM11.4231 18.548L10.4231 18.548L10.4231 19.548H11.4231V18.548ZM12.5581 18.548V19.548H13.5491L13.5581 18.5571L12.5581 18.548ZM12.5769 16.4874V15.4874H11.586L11.577 16.4782L12.5769 16.4874ZM13.9615 16.4874V17.4874C14.3166 17.4874 14.645 17.2991 14.8245 16.9927C15.0039 16.6863 15.0074 16.3078 14.8337 15.9981L13.9615 16.4874ZM13.6154 15.8703V14.8703L12.7432 16.3595L13.6154 15.8703ZM18 15.8703V16.8703C18.4223 16.8703 18.799 16.605 18.9414 16.2075C19.0838 15.81 18.9612 15.3658 18.6349 15.0977L18 15.8703ZM15.2093 13.5767L14.3649 13.041L13.8912 13.7878L14.5744 14.3493L15.2093 13.5767ZM17.7907 9.50744L18.6351 10.0431C18.8842 9.65043 18.8298 9.13785 18.5037 8.80628C18.1776 8.47471 17.666 8.41167 17.2692 8.65416L17.7907 9.50744ZM13.6744 12.023L12.713 12.2982L14.1959 12.8763L13.6744 12.023ZM12.4884 7.87974L13.4498 7.60453L13.4397 7.56958L13.4272 7.53545L12.4884 7.87974ZM12 6.54797L12.9389 6.20369C12.7944 5.80982 12.4195 5.54797 12 5.54797C11.5805 5.54797 11.2056 5.80982 11.0611 6.20368L12 6.54797ZM11.5116 7.87974L10.5728 7.53544L10.5598 7.57086L10.5495 7.60716L11.5116 7.87974ZM10.3378 12.023L9.81638 12.8763L11.3 12.2956L10.3378 12.023ZM6.22156 9.50744L6.74302 8.65416C6.34622 8.41167 5.83462 8.47471 5.50856 8.80628C5.1825 9.13785 5.12803 9.65043 5.37714 10.0431L6.22156 9.50744ZM8.80296 13.5767L9.43624 14.3506L10.1221 13.7894L9.64738 13.041L8.80296 13.5767ZM6 15.8703L5.36672 15.0964C5.03961 15.364 4.91611 15.8084 5.05821 16.2065C5.20032 16.6046 5.57734 16.8703 6 16.8703V15.8703ZM10.9106 16.9766L11.2568 16.3595L9.51246 15.381L9.16631 15.9981L10.9106 16.9766ZM11.4231 15.4874H10.0385V17.4874H11.4231V15.4874ZM12.4231 18.548L12.4231 16.4874L10.4231 16.4874L10.4231 18.548L12.4231 18.548ZM12.0349 17.548H11.4231V19.548H12.0349V17.548ZM12.0349 19.548H12.5581V17.548H12.0349V19.548ZM13.5581 18.5571L13.5769 16.4965L11.577 16.4782L11.5582 18.5389L13.5581 18.5571ZM12.5769 17.4874H13.9615V15.4874H12.5769V17.4874ZM14.8337 15.9981L14.4875 15.3811L12.7432 16.3595L13.0894 16.9766L14.8337 15.9981ZM13.6154 16.8703H18V14.8703H13.6154V16.8703ZM18.6349 15.0977L15.8442 12.8041L14.5744 14.3493L17.3651 16.6428L18.6349 15.0977ZM16.0537 14.1124L18.6351 10.0431L16.9463 8.97177L14.3649 13.041L16.0537 14.1124ZM17.2692 8.65416L13.153 11.1697L14.1959 12.8763L18.3121 10.3607L17.2692 8.65416ZM14.6358 11.7478L13.4498 7.60453L11.527 8.15494L12.713 12.2982L14.6358 11.7478ZM13.4272 7.53545L12.9389 6.20369L11.0611 6.89226L11.5495 8.22402L13.4272 7.53545ZM12.4505 8.22403L12.9389 6.89227L11.0611 6.20368L10.5728 7.53544L12.4505 8.22403ZM11.3 12.2956L12.4738 8.15231L10.5495 7.60716L9.3757 11.7504L11.3 12.2956ZM5.70011 10.3607L9.81638 12.8763L10.8593 11.1697L6.74302 8.65416L5.70011 10.3607ZM9.64738 13.041L7.06599 8.97177L5.37714 10.0431L7.95853 14.1124L9.64738 13.041ZM6.63328 16.6442L9.43624 14.3506L8.16968 12.8028L5.36672 15.0964L6.63328 16.6442ZM10.3846 14.8703H6V16.8703H10.3846V14.8703Z" fill="#CAA200" mask="url(#path-4-outside-1_8_4144)"/>
</g>
<defs>
<filter id="filter0_i_8_4144" x="1.20001" y="2.17664" width="23.6" height="22.6" filterUnits="userSpaceOnUse" color-interpolation-filters="sRGB">
<feFlood flood-opacity="0" result="BackgroundImageFix"/>
<feBlend mode="normal" in="SourceGraphic" in2="BackgroundImageFix" result="shape"/>
<feColorMatrix in="SourceAlpha" type="matrix" values="0 0 0 0 0 0 0 0 0 0 0 0 0 0 0 0 0 0 127 0" result="hardAlpha"/>
<feOffset dx="2" dy="1"/>
<feGaussianBlur stdDeviation="2"/>
<feComposite in2="hardAlpha" operator="arithmetic" k2="-1" k3="1"/>
<feColorMatrix type="matrix" values="0 0 0 0 0 0 0 0 0 0 0 0 0 0 0 0 0 0 0.25 0"/>
<feBlend mode="normal" in2="shape" result="effect1_innerShadow_8_4144"/>
</filter>
<filter id="filter1_d_8_4144" x="4.99994" y="5.54797" width="16.0001" height="16" filterUnits="userSpaceOnUse" color-interpolation-filters="sRGB">
<feFlood flood-opacity="0" result="BackgroundImageFix"/>
<feColorMatrix in="SourceAlpha" type="matrix" values="0 0 0 0 0 0 0 0 0 0 0 0 0 0 0 0 0 0 127 0" result="hardAlpha"/>
<feOffset dx="1" dy="1"/>
<feGaussianBlur stdDeviation="0.5"/>
<feComposite in2="hardAlpha" operator="out"/>
<feColorMatrix type="matrix" values="0 0 0 0 0 0 0 0 0 0 0 0 0 0 0 0 0 0 0.25 0"/>
<feBlend mode="normal" in2="BackgroundImageFix" result="effect1_dropShadow_8_4144"/>
<feBlend mode="normal" in="SourceGraphic" in2="effect1_dropShadow_8_4144" result="shape"/>
</filter>
<linearGradient id="paint0_linear_8_4144" x1="16.08" y1="12.9766" x2="4.56" y2="12.9766" gradientUnits="userSpaceOnUse">
<stop stop-color="#F9E455"/>
<stop offset="1" stop-color="#E9C10B"/>
</linearGradient>
<linearGradient id="paint1_linear_8_4144" x1="15.672" y1="12.9766" x2="5.30401" y2="12.9766" gradientUnits="userSpaceOnUse">
<stop stop-color="#F9E455"/>
<stop offset="1" stop-color="#E9C10B"/>
</linearGradient>
<linearGradient id="paint2_linear_8_4144" x1="-12.12" y1="0.616635" x2="22.08" y2="21.2566" gradientUnits="userSpaceOnUse">
<stop offset="0.255208" stop-color="#785A13"/>
<stop offset="0.864583" stop-color="#EBC935"/>
</linearGradient>
</defs>
</svg>
